<svg xmlns="http://www.w3.org/2000/svg" viewBox="0 0 256 256" role="img" aria-label="Simple Download Manager icon">
  <defs>
    <linearGradient id="bg" x1="40" y1="28" x2="216" y2="232" gradientUnits="userSpaceOnUse">
      <stop offset="0" stop-color="#22c55e"/>
      <stop offset="0.48" stop-color="#0ea5e9"/>
      <stop offset="1" stop-color="#2563eb"/>
    </linearGradient>
    <linearGradient id="arrow" x1="128" y1="54" x2="128" y2="176" gradientUnits="userSpaceOnUse">
      <stop offset="0" stop-color="#ffffff"/>
      <stop offset="1" stop-color="#dff7ff"/>
    </linearGradient>
    <filter id="shadow" x="-20%" y="-20%" width="140%" height="150%" color-interpolation-filters="sRGB">
      <feDropShadow dx="0" dy="14" stdDeviation="12" flood-color="#0f172a" flood-opacity="0.3"/>
    </filter>
  </defs>
  <rect width="256" height="256" rx="58" fill="#08111f"/>
  <rect x="12" y="12" width="232" height="232" rx="48" fill="url(#bg)"/>
  <path d="M50 184c17 14 41 22 78 22s61-8 78-22" fill="none" stroke="#dff7ff" stroke-width="14" stroke-linecap="round" opacity="0.94"/>
  <path d="M67 157h122c9 0 15 7 15 15v7c0 9-6 16-15 16H67c-9 0-15-7-15-16v-7c0-8 6-15 15-15Z" fill="#082f49" opacity="0.42"/>
  <g filter="url(#shadow)">
    <path d="M112 57c0-7 5-12 12-12h8c7 0 12 5 12 12v72l25-25c5-5 12-5 17 0l5 5c5 5 5 12 0 17l-54 54c-5 5-13 5-18 0l-54-54c-5-5-5-12 0-17l5-5c5-5 12-5 17 0l25 25V57Z" fill="url(#arrow)"/>
  </g>
  <path d="M60 64h40M49 93h30M174 64h22M160 93h47" fill="none" stroke="#dff7ff" stroke-width="12" stroke-linecap="round" opacity="0.72"/>
  <path d="M72 214h112" fill="none" stroke="#03213c" stroke-width="10" stroke-linecap="round" opacity="0.35"/>
</svg>
